<svg width="136" height="32" viewBox="0 0 136 32" fill="none" xmlns="http://www.w3.org/2000/svg">
<g clip-path="url(#clip0_3426_326)">
<rect width="32" height="32" rx="16" fill="black"/>
<path d="M11 10.9688L8.78125 23.25H23.2188V8.71875L11 10.9688Z" stroke="white" stroke-width="0.625"/>
<path d="M14.1094 10.9688C14.1094 12.686 12.7173 14.0781 11 14.0781C9.28274 14.0781 7.89062 12.686 7.89062 10.9688C7.89062 9.25149 9.28274 7.85938 11 7.85938C12.7173 7.85938 14.1094 9.25149 14.1094 10.9688Z" fill="white" stroke="black" stroke-width="0.03125"/>
<path d="M26.3281 23.25C26.3281 24.9673 24.936 26.3594 23.2188 26.3594C21.5015 26.3594 20.1094 24.9673 20.1094 23.25C20.1094 21.5327 21.5015 20.1406 23.2188 20.1406C24.936 20.1406 26.3281 21.5327 26.3281 23.25Z" fill="white" stroke="black" stroke-width="0.03125"/>
<path d="M11.9531 23.25C11.9531 24.9673 10.561 26.3594 8.84375 26.3594C7.12649 26.3594 5.73438 24.9673 5.73438 23.25C5.73438 21.5327 7.12649 20.1406 8.84375 20.1406C10.561 20.1406 11.9531 21.5327 11.9531 23.25Z" fill="white" stroke="black" stroke-width="0.03125"/>
<path d="M26.3281 8.71875C26.3281 10.436 24.936 11.8281 23.2188 11.8281C21.5015 11.8281 20.1094 10.436 20.1094 8.71875C20.1094 7.00149 21.5015 5.60938 23.2188 5.60938C24.936 5.60938 26.3281 7.00149 26.3281 8.71875Z" fill="white" stroke="black" stroke-width="0.03125"/>
<path d="M8.84375 23.2344L23.2188 8.71875M11 10.9688L23.2188 23.25" stroke="white" stroke-width="0.625"/>
</g>
<rect x="0.015625" y="0.015625" width="31.9688" height="31.9688" rx="15.9844" stroke="#404245" stroke-width="0.03125" stroke-linecap="round" stroke-linejoin="round" stroke-dasharray="0.12 0.16"/>
<path d="M46.984 24.288C42.928 24.288 40.936 22.224 40.936 17.688C40.936 13.152 42.952 11.088 46.984 11.088C50.632 11.088 52.528 13.056 52.528 17.544V18.408H43.936C44.008 20.784 44.848 21.984 47.008 21.984C48.496 21.984 49.648 21.216 49.648 19.584H52.528C52.528 22.8 50.128 24.288 46.984 24.288ZM43.984 16.344H49.48C49.48 14.232 48.496 13.416 46.984 13.416C45.088 13.416 44.2 14.352 43.984 16.344ZM53.5759 24L58.0879 17.496L53.8879 11.376H57.4399L59.9359 15.288H60.0799L62.6239 11.376H65.9599L61.7359 17.424L66.1999 24H62.6959L59.8879 19.632H59.7439L56.9119 24H53.5759ZM67.9975 28.152V11.376H70.4215L70.6615 13.056H70.8295C71.6455 11.736 73.0615 11.088 74.6935 11.088C77.7895 11.088 79.7095 13.104 79.7095 17.712C79.7095 22.248 77.6695 24.288 74.8615 24.288C73.1335 24.288 71.8375 23.712 71.0695 22.536H70.9255V28.152H67.9975ZM73.7815 21.768C75.9175 21.768 76.6855 20.52 76.6855 17.88V17.544C76.6855 14.856 75.9175 13.608 73.7815 13.608C71.7895 13.608 70.9255 15 70.9255 17.544V17.832C70.9255 20.352 71.7895 21.768 73.7815 21.768ZM82.7046 24V20.928H85.7526V24H82.7046ZM94.6519 24.288C90.6919 24.288 88.7719 22.224 88.7719 17.688C88.7719 13.152 90.7399 11.088 94.6519 11.088C98.0119 11.088 100.028 12.768 100.028 16.104H97.0519C97.0519 14.352 96.2839 13.464 94.6039 13.464C92.6359 13.464 91.7719 14.808 91.7719 17.544V17.856C91.7719 20.568 92.6119 21.912 94.7239 21.912C96.3319 21.912 97.1959 20.976 97.1959 19.272H100.028C100.028 22.44 98.0359 24.288 94.6519 24.288ZM102.521 24V6.648H105.449V24H102.521ZM112.576 24.288C110.152 24.288 108.472 23.112 108.472 19.896V11.376H111.4V19.368C111.4 21.144 112.288 21.72 113.704 21.72C115.288 21.72 116.512 20.472 116.512 18.72V11.376H119.44V24H117.016L116.776 22.32H116.608C115.744 23.472 114.4 24.288 112.576 24.288ZM129.256 24.288C127.624 24.288 126.208 23.64 125.392 22.32H125.224L124.984 24H122.56V6.648H125.488V12.84H125.632C126.4 11.688 127.696 11.088 129.424 11.088C132.232 11.088 134.272 13.128 134.272 17.664C134.272 22.272 132.352 24.288 129.256 24.288ZM128.344 21.768C130.48 21.768 131.248 20.52 131.248 17.88V17.544C131.248 14.856 130.48 13.608 128.344 13.608C126.352 13.608 125.488 15.048 125.488 17.568V17.88C125.488 20.376 126.352 21.768 128.344 21.768Z" fill="black"/>
<defs>
<clipPath id="clip0_3426_326">
<rect width="32" height="32" rx="16" fill="white"/>
</clipPath>
</defs>
</svg>
